<?xml version="1.0" encoding="utf-8"?>
<!-- Generator: Adobe Illustrator 15.0.2, SVG Export Plug-In . SVG Version: 6.00 Build 0)  -->
<!DOCTYPE svg PUBLIC "-//W3C//DTD SVG 1.1//EN" "http://www.w3.org/Graphics/SVG/1.1/DTD/svg11.dtd">
<svg version="1.1" id="Layer_1" xmlns="http://www.w3.org/2000/svg" xmlns:xlink="http://www.w3.org/1999/xlink" x="0px" y="0px"
	 width="612px" height="167.863px" viewBox="18 347.269 612 167.863" enable-background="new 18 347.269 612 167.863"
	 xml:space="preserve">
<g>
	<g>
		<rect x="18" y="347.269" width="414.57" height="167.863"/>
		<path fill="#FFFFFF" d="M399.824,370.795l-39.422,57.544l42.92,62.948h-39.741l-23.526-33.699l-23.844,33.699h-39.422
			c0.954-2.226,42.919-62.948,42.919-62.948l-17.804-24.798h-75.983c-3.497,0.317-7.948-0.954-9.538,3.179
			c-0.636,1.272-0.954,3.18-0.318,4.451c0.636,1.59,1.908,2.861,3.497,3.497l2.543,0.318h30.521
			c13.989,0.317,27.023,9.22,33.064,21.937c5.405,10.491,4.769,25.115-1.271,35.289c-7.63,12.717-21.301,20.029-35.925,19.394
			h-84.25l-13.035-46.734l-13.035,46.734h-30.838l-12.399-47.053l-13.67,46.734H47.249c0,0,31.474-112.862,33.382-120.174h28.931
			l13.671,50.231l13.67-50.231h28.295l24.162,87.746h56.272c3.815-0.318,9.22,0.954,10.809-3.815c0.636-2.226,0-4.45-1.271-5.723
			c-1.271-1.271-3.179-1.589-5.087-1.589H219.88c-14.306-0.318-28.613-9.855-34.018-23.526c-5.723-13.671-2.543-30.521,8.266-41.012
			c7.312-7.313,16.214-11.128,26.706-11.764h99.509l20.029,28.931l20.665-28.931L399.824,370.795z"/>
	</g>
</g>
<path d="M438.929,515.132c0.954-7.631,1.272-15.261,2.544-22.573c1.907-13.034,9.537-22.572,19.074-31.156
	c6.995-6.358,13.989-12.081,20.666-18.757c4.451-4.451,5.404-10.81,3.179-15.261c-1.907-3.497-5.087-5.087-8.901-4.133
	c-3.815,0.954-5.723,3.18-6.041,6.994c0,3.18,0,6.041,0,9.22c-10.174,0-20.029,0-29.885,0c-3.497-18.757,10.81-38.786,30.203-42.283
	c6.994-1.271,13.67-0.954,20.347,0.953c20.665,5.723,30.202,24.799,24.162,46.417c-2.544,8.584-7.312,15.261-14.624,20.665
	c-7.631,5.404-14.625,11.445-21.938,17.485c-1.59,1.272-1.907,1.908-2.543,3.497c13.671,0,25.752,0,39.422,0
	c0,9.856,0,19.394,0,28.932C489.16,515.132,464.045,515.132,438.929,515.132z"/>
<g>
	<path d="M630,467.761h-42.92v47.371h-22.254v-47.371h-42.602v-23.208h42.602v-47.688h22.254v47.688h42.602v23.208H630z"/>
</g>
</svg>
